<mxfile host="app.diagrams.net" modified="2024-05-31T05:36:41.182Z" agent="Mozilla/5.0 (Macintosh; Intel Mac OS X 10_15_7) AppleWebKit/537.36 (KHTML, like Gecko) Chrome/125.0.0.0 Safari/537.36" etag="eom611aX6nMdHL8RnOew" version="24.4.7" type="github">
  <diagram name="페이지-1" id="tuTowDDXJlAEr5LdhTYx">
    <mxGraphModel dx="1166" dy="615" grid="1" gridSize="10" guides="1" tooltips="1" connect="1" arrows="1" fold="1" page="1" pageScale="1" pageWidth="827" pageHeight="1169" math="0" shadow="0">
      <root>
        <mxCell id="0" />
        <mxCell id="1" parent="0" />
        <mxCell id="8poJYC-rIyfkKqqMc_Zp-3" value="" style="edgeStyle=orthogonalEdgeStyle;rounded=0;orthogonalLoop=1;jettySize=auto;html=1;" edge="1" parent="1" source="8poJYC-rIyfkKqqMc_Zp-1" target="8poJYC-rIyfkKqqMc_Zp-2">
          <mxGeometry relative="1" as="geometry" />
        </mxCell>
        <mxCell id="8poJYC-rIyfkKqqMc_Zp-1" value="회원&lt;div&gt;&lt;br&gt;&lt;/div&gt;" style="shape=umlActor;verticalLabelPosition=bottom;verticalAlign=top;html=1;outlineConnect=0;" vertex="1" parent="1">
          <mxGeometry x="40" y="220" width="30" height="60" as="geometry" />
        </mxCell>
        <mxCell id="8poJYC-rIyfkKqqMc_Zp-5" value="" style="edgeStyle=orthogonalEdgeStyle;rounded=0;orthogonalLoop=1;jettySize=auto;html=1;" edge="1" parent="1" source="8poJYC-rIyfkKqqMc_Zp-2" target="8poJYC-rIyfkKqqMc_Zp-4">
          <mxGeometry relative="1" as="geometry" />
        </mxCell>
        <mxCell id="8poJYC-rIyfkKqqMc_Zp-2" value="&lt;div style=&quot;&quot;&gt;&lt;span style=&quot;background-color: initial;&quot;&gt;로그인&lt;/span&gt;&lt;br&gt;&lt;/div&gt;" style="whiteSpace=wrap;html=1;verticalAlign=middle;align=center;" vertex="1" parent="1">
          <mxGeometry x="160" y="220" width="120" height="60" as="geometry" />
        </mxCell>
        <mxCell id="8poJYC-rIyfkKqqMc_Zp-7" value="" style="edgeStyle=orthogonalEdgeStyle;rounded=0;orthogonalLoop=1;jettySize=auto;html=1;" edge="1" parent="1" source="8poJYC-rIyfkKqqMc_Zp-4" target="8poJYC-rIyfkKqqMc_Zp-6">
          <mxGeometry relative="1" as="geometry" />
        </mxCell>
        <mxCell id="8poJYC-rIyfkKqqMc_Zp-4" value="&lt;div&gt;&lt;br&gt;&lt;/div&gt;&lt;div&gt;&lt;span style=&quot;background-color: initial;&quot;&gt;로그인 여부&amp;nbsp;&lt;/span&gt;&lt;br&gt;&lt;/div&gt;&lt;div&gt;&lt;span style=&quot;background-color: initial;&quot;&gt;체크&lt;/span&gt;&lt;br&gt;&lt;/div&gt;&lt;div&gt;&lt;br&gt;&lt;/div&gt;" style="rhombus;whiteSpace=wrap;html=1;verticalAlign=middle;" vertex="1" parent="1">
          <mxGeometry x="350" y="210" width="110" height="80" as="geometry" />
        </mxCell>
        <mxCell id="8poJYC-rIyfkKqqMc_Zp-11" style="edgeStyle=orthogonalEdgeStyle;rounded=0;orthogonalLoop=1;jettySize=auto;html=1;entryX=0;entryY=0.5;entryDx=0;entryDy=0;" edge="1" parent="1" source="8poJYC-rIyfkKqqMc_Zp-6" target="8poJYC-rIyfkKqqMc_Zp-8">
          <mxGeometry relative="1" as="geometry" />
        </mxCell>
        <mxCell id="8poJYC-rIyfkKqqMc_Zp-13" value="" style="edgeStyle=orthogonalEdgeStyle;rounded=0;orthogonalLoop=1;jettySize=auto;html=1;" edge="1" parent="1" source="8poJYC-rIyfkKqqMc_Zp-6" target="8poJYC-rIyfkKqqMc_Zp-12">
          <mxGeometry relative="1" as="geometry" />
        </mxCell>
        <mxCell id="8poJYC-rIyfkKqqMc_Zp-16" style="edgeStyle=orthogonalEdgeStyle;rounded=0;orthogonalLoop=1;jettySize=auto;html=1;entryX=0;entryY=0.5;entryDx=0;entryDy=0;" edge="1" parent="1" source="8poJYC-rIyfkKqqMc_Zp-6" target="8poJYC-rIyfkKqqMc_Zp-14">
          <mxGeometry relative="1" as="geometry" />
        </mxCell>
        <mxCell id="8poJYC-rIyfkKqqMc_Zp-19" style="edgeStyle=orthogonalEdgeStyle;rounded=0;orthogonalLoop=1;jettySize=auto;html=1;entryX=0;entryY=0.5;entryDx=0;entryDy=0;" edge="1" parent="1" source="8poJYC-rIyfkKqqMc_Zp-6" target="8poJYC-rIyfkKqqMc_Zp-17">
          <mxGeometry relative="1" as="geometry" />
        </mxCell>
        <mxCell id="8poJYC-rIyfkKqqMc_Zp-6" value="메인 화면" style="whiteSpace=wrap;html=1;" vertex="1" parent="1">
          <mxGeometry x="540" y="220" width="120" height="60" as="geometry" />
        </mxCell>
        <mxCell id="8poJYC-rIyfkKqqMc_Zp-22" value="" style="edgeStyle=orthogonalEdgeStyle;rounded=0;orthogonalLoop=1;jettySize=auto;html=1;" edge="1" parent="1" source="8poJYC-rIyfkKqqMc_Zp-8" target="8poJYC-rIyfkKqqMc_Zp-21">
          <mxGeometry relative="1" as="geometry" />
        </mxCell>
        <mxCell id="8poJYC-rIyfkKqqMc_Zp-23" value="" style="edgeStyle=orthogonalEdgeStyle;rounded=0;orthogonalLoop=1;jettySize=auto;html=1;" edge="1" parent="1" source="8poJYC-rIyfkKqqMc_Zp-8" target="8poJYC-rIyfkKqqMc_Zp-21">
          <mxGeometry relative="1" as="geometry" />
        </mxCell>
        <mxCell id="8poJYC-rIyfkKqqMc_Zp-24" value="" style="edgeStyle=orthogonalEdgeStyle;rounded=0;orthogonalLoop=1;jettySize=auto;html=1;" edge="1" parent="1" source="8poJYC-rIyfkKqqMc_Zp-8" target="8poJYC-rIyfkKqqMc_Zp-21">
          <mxGeometry relative="1" as="geometry" />
        </mxCell>
        <mxCell id="8poJYC-rIyfkKqqMc_Zp-26" style="edgeStyle=orthogonalEdgeStyle;rounded=0;orthogonalLoop=1;jettySize=auto;html=1;entryX=0;entryY=0.5;entryDx=0;entryDy=0;" edge="1" parent="1" source="8poJYC-rIyfkKqqMc_Zp-8" target="8poJYC-rIyfkKqqMc_Zp-25">
          <mxGeometry relative="1" as="geometry" />
        </mxCell>
        <mxCell id="8poJYC-rIyfkKqqMc_Zp-27" value="" style="edgeStyle=orthogonalEdgeStyle;rounded=0;orthogonalLoop=1;jettySize=auto;html=1;" edge="1" parent="1" source="8poJYC-rIyfkKqqMc_Zp-8" target="8poJYC-rIyfkKqqMc_Zp-21">
          <mxGeometry relative="1" as="geometry" />
        </mxCell>
        <mxCell id="8poJYC-rIyfkKqqMc_Zp-29" style="edgeStyle=orthogonalEdgeStyle;rounded=0;orthogonalLoop=1;jettySize=auto;html=1;entryX=0;entryY=0.5;entryDx=0;entryDy=0;" edge="1" parent="1" source="8poJYC-rIyfkKqqMc_Zp-8" target="8poJYC-rIyfkKqqMc_Zp-28">
          <mxGeometry relative="1" as="geometry" />
        </mxCell>
        <mxCell id="8poJYC-rIyfkKqqMc_Zp-30" value="" style="edgeStyle=orthogonalEdgeStyle;rounded=0;orthogonalLoop=1;jettySize=auto;html=1;" edge="1" parent="1" source="8poJYC-rIyfkKqqMc_Zp-8" target="8poJYC-rIyfkKqqMc_Zp-21">
          <mxGeometry relative="1" as="geometry" />
        </mxCell>
        <mxCell id="8poJYC-rIyfkKqqMc_Zp-32" style="edgeStyle=orthogonalEdgeStyle;rounded=0;orthogonalLoop=1;jettySize=auto;html=1;entryX=0;entryY=0.5;entryDx=0;entryDy=0;" edge="1" parent="1" source="8poJYC-rIyfkKqqMc_Zp-8" target="8poJYC-rIyfkKqqMc_Zp-31">
          <mxGeometry relative="1" as="geometry" />
        </mxCell>
        <mxCell id="8poJYC-rIyfkKqqMc_Zp-8" value="운동" style="whiteSpace=wrap;html=1;" vertex="1" parent="1">
          <mxGeometry x="800" y="40" width="120" height="60" as="geometry" />
        </mxCell>
        <mxCell id="8poJYC-rIyfkKqqMc_Zp-34" value="" style="edgeStyle=orthogonalEdgeStyle;rounded=0;orthogonalLoop=1;jettySize=auto;html=1;" edge="1" parent="1" source="8poJYC-rIyfkKqqMc_Zp-12" target="8poJYC-rIyfkKqqMc_Zp-33">
          <mxGeometry relative="1" as="geometry" />
        </mxCell>
        <mxCell id="8poJYC-rIyfkKqqMc_Zp-35" value="" style="edgeStyle=orthogonalEdgeStyle;rounded=0;orthogonalLoop=1;jettySize=auto;html=1;" edge="1" parent="1" source="8poJYC-rIyfkKqqMc_Zp-12" target="8poJYC-rIyfkKqqMc_Zp-33">
          <mxGeometry relative="1" as="geometry" />
        </mxCell>
        <mxCell id="8poJYC-rIyfkKqqMc_Zp-38" style="edgeStyle=orthogonalEdgeStyle;rounded=0;orthogonalLoop=1;jettySize=auto;html=1;entryX=0;entryY=0.5;entryDx=0;entryDy=0;" edge="1" parent="1" source="8poJYC-rIyfkKqqMc_Zp-12" target="8poJYC-rIyfkKqqMc_Zp-36">
          <mxGeometry relative="1" as="geometry" />
        </mxCell>
        <mxCell id="8poJYC-rIyfkKqqMc_Zp-39" style="edgeStyle=orthogonalEdgeStyle;rounded=0;orthogonalLoop=1;jettySize=auto;html=1;entryX=0;entryY=0.5;entryDx=0;entryDy=0;" edge="1" parent="1" source="8poJYC-rIyfkKqqMc_Zp-12" target="8poJYC-rIyfkKqqMc_Zp-37">
          <mxGeometry relative="1" as="geometry" />
        </mxCell>
        <mxCell id="8poJYC-rIyfkKqqMc_Zp-12" value="인바디" style="whiteSpace=wrap;html=1;" vertex="1" parent="1">
          <mxGeometry x="800" y="400" width="120" height="60" as="geometry" />
        </mxCell>
        <mxCell id="8poJYC-rIyfkKqqMc_Zp-41" value="" style="edgeStyle=orthogonalEdgeStyle;rounded=0;orthogonalLoop=1;jettySize=auto;html=1;" edge="1" parent="1" source="8poJYC-rIyfkKqqMc_Zp-14" target="8poJYC-rIyfkKqqMc_Zp-40">
          <mxGeometry relative="1" as="geometry" />
        </mxCell>
        <mxCell id="8poJYC-rIyfkKqqMc_Zp-14" value="출석" style="whiteSpace=wrap;html=1;" vertex="1" parent="1">
          <mxGeometry x="800" y="680" width="120" height="60" as="geometry" />
        </mxCell>
        <mxCell id="8poJYC-rIyfkKqqMc_Zp-17" value="마이" style="whiteSpace=wrap;html=1;" vertex="1" parent="1">
          <mxGeometry x="800" y="800" width="120" height="60" as="geometry" />
        </mxCell>
        <mxCell id="8poJYC-rIyfkKqqMc_Zp-21" value="데일리 운동 기록 저장" style="whiteSpace=wrap;html=1;rounded=1;" vertex="1" parent="1">
          <mxGeometry x="1000" y="40" width="120" height="60" as="geometry" />
        </mxCell>
        <mxCell id="8poJYC-rIyfkKqqMc_Zp-25" value="데일리 운동 기록 삭제" style="whiteSpace=wrap;html=1;rounded=1;" vertex="1" parent="1">
          <mxGeometry x="1000" y="120" width="120" height="60" as="geometry" />
        </mxCell>
        <mxCell id="8poJYC-rIyfkKqqMc_Zp-28" value="일별 운동 기록 조회" style="whiteSpace=wrap;html=1;rounded=1;" vertex="1" parent="1">
          <mxGeometry x="1000" y="200" width="120" height="60" as="geometry" />
        </mxCell>
        <mxCell id="8poJYC-rIyfkKqqMc_Zp-31" value="월별 운동 기록 조회" style="whiteSpace=wrap;html=1;rounded=1;" vertex="1" parent="1">
          <mxGeometry x="1000" y="280" width="120" height="60" as="geometry" />
        </mxCell>
        <mxCell id="8poJYC-rIyfkKqqMc_Zp-33" value="인바디 저장" style="whiteSpace=wrap;html=1;rounded=1;" vertex="1" parent="1">
          <mxGeometry x="1000" y="400" width="120" height="60" as="geometry" />
        </mxCell>
        <mxCell id="8poJYC-rIyfkKqqMc_Zp-36" value="일별 인바디 조회" style="whiteSpace=wrap;html=1;rounded=1;" vertex="1" parent="1">
          <mxGeometry x="1000" y="480" width="120" height="60" as="geometry" />
        </mxCell>
        <mxCell id="8poJYC-rIyfkKqqMc_Zp-37" value="월별 인바디 조회" style="whiteSpace=wrap;html=1;rounded=1;" vertex="1" parent="1">
          <mxGeometry x="1000" y="560" width="120" height="60" as="geometry" />
        </mxCell>
        <mxCell id="8poJYC-rIyfkKqqMc_Zp-40" value="데일리 출석 체크" style="whiteSpace=wrap;html=1;rounded=1;" vertex="1" parent="1">
          <mxGeometry x="1000" y="680" width="120" height="60" as="geometry" />
        </mxCell>
        <mxCell id="8poJYC-rIyfkKqqMc_Zp-42" value="데일리 출석 체크" style="whiteSpace=wrap;html=1;rounded=1;" vertex="1" parent="1">
          <mxGeometry x="1000" y="760" width="120" height="60" as="geometry" />
        </mxCell>
      </root>
    </mxGraphModel>
  </diagram>
</mxfile>
